<?xml version="1.0" encoding="UTF-8"?>
<svg width="656px" height="656px" viewBox="0 0 656 656" version="1.1" xmlns="http://www.w3.org/2000/svg" xmlns:xlink="http://www.w3.org/1999/xlink">
    <!-- Generator: Sketch 59.1 (86144) - https://sketch.com -->
    <title>Group 2</title>
    <desc>Created with Sketch.</desc>
    <defs>
        <linearGradient x1="-0.901055291%" y1="30.4896981%" x2="94.6386597%" y2="75.0414783%" id="linearGradient-1">
            <stop stop-color="#FFFFFF" stop-opacity="0.2" offset="0%"></stop>
            <stop stop-color="#FFFFFF" stop-opacity="0" offset="100%"></stop>
        </linearGradient>
    </defs>
    <g id="Page-1" stroke="none" stroke-width="1" fill="none" fill-rule="evenodd">
        <g id="Group-2" transform="translate(1.000000, 1.000000)">
            <circle id="Oval" stroke="#979797" fill="#FFFFFF" cx="327" cy="327" r="327"></circle>
            <g id="chef" transform="translate(92.000000, 92.000000)" fill-rule="nonzero">
                <path d="M352,42.667 C345.536,42.667 338.781,43.522 331.766,44.825 C308.273,17.439 273.496,0 234.667,0 C195.838,0 161.06,17.439 137.568,44.824 C130.552,43.522 123.797,42.666 117.334,42.666 C52.635,42.667 0,95.302 0,160 C0,204.333 25,244.635 64.25,264.563 L64.042,425.76 C64.032,437.395 68.552,448.333 76.771,456.562 C85,464.802 95.927,469.333 107.563,469.333 L361.813,469.333 C385.813,469.333 405.334,449.812 405.334,425.812 L405.334,264.406 C444.438,244.427 469.334,204.187 469.334,160 C469.334,95.302 416.698,42.667 352,42.667 Z" id="Path" fill="#303C42"></path>
                <path d="M361.813,448 L107.563,448 C101.636,448 96.063,445.687 91.865,441.49 C87.677,437.292 85.365,431.719 85.3749677,425.782 L85.43,384 L384,384 L384,425.813 C384,438.042 374.042,448 361.813,448 Z" id="Path" fill="#E6E6E6"></path>
                <path d="M106.708,425.781 L106.755,384 L85.43,384 L85.3749677,425.781 C85.365,431.719 87.677,437.291 91.865,441.489 C96.063,445.687 101.636,447.999 107.563,447.999 L125.726,447.999 C120.647,447.999 115.869,445.686 112.272,441.489 C108.681,437.292 106.699,431.719 106.708,425.781 Z" id="Path" fill="#FFFFFF" opacity="0.2"></path>
                <path d="M362.667,384 L362.667,425.813 C362.667,438.042 354.132,448.001 343.65,448.001 L361.813,448.001 C374.042,448.001 384.001,438.043 384.001,425.813 L384.001,384 L362.667,384 Z" id="Path" fill="#000000" opacity="0.1"></path>
                <path d="M390.604,247.802 C390.041,248.031 389.51,248.302 389.01,248.625 C387.666,249.458 386.562,250.563 385.739,251.833 C384.906,253.093 384.343,254.552 384.114,256.114 C384.02,256.708 383.989,257.302 383.999,257.906 L383.999,362.666 L85.457,362.666 L85.594,258.051 C85.604,257.468 85.573,256.874 85.49,256.301 C85.261,254.686 84.667,253.186 83.802,251.884 C82.989,250.665 81.927,249.603 80.635,248.79 C80.104,248.457 79.541,248.165 78.958,247.925 C43.948,232.615 21.333,198.135 21.333,160 C21.333,107.062 64.396,64 117.333,64 C119.402,64 121.586,64.25 123.729,64.419 C112.937,83.176 106.666,104.849 106.666,128 C106.666,133.896 111.437,138.667 117.333,138.667 C123.229,138.667 128,133.896 128,128 C128,69.187 175.854,21.333 234.667,21.333 C293.48,21.333 341.333,69.188 341.333,128 C341.333,133.896 346.104,138.667 352,138.667 C357.896,138.667 362.667,133.896 362.667,128 C362.667,104.849 356.396,83.176 345.604,64.419 C347.747,64.25 349.931,64 352,64 C404.938,64 448,107.063 448,160 C448,198 425.479,232.438 390.604,247.802 Z" id="Path" fill="#F2F2F2"></path>
                <path d="M234.667,34.667 C283.638,34.667 324.802,65.696 339.339,108.271 C330.038,58.873 286.724,21.333 234.667,21.333 C182.61,21.333 139.296,58.872 129.995,108.271 C144.531,65.695 185.695,34.667 234.667,34.667 Z" id="Path" fill="#FFFFFF" opacity="0.2"></path>
                <path d="M352,64 C349.931,64 347.747,64.25 345.604,64.419 C345.682,64.556 345.736,64.707 345.814,64.843 C389.132,69.149 423.334,109.92 423.334,159.999 C423.334,197.999 403.417,232.437 372.575,247.801 C372.078,248.03 371.608,248.301 371.165,248.624 C369.977,249.457 369.001,250.562 368.273,251.832 C367.536,253.092 367.039,254.551 366.835,256.113 C366.752,256.707 366.724,257.301 366.733,257.905 L366.733,362.665 L384,362.665 L384,257.905 C383.99,257.301 384.021,256.707 384.115,256.113 C384.344,254.55 384.907,253.092 385.74,251.832 C386.563,250.561 387.667,249.457 389.011,248.624 C389.511,248.301 390.042,248.03 390.605,247.801 C425.479,232.438 448,198 448,160 C448,107.063 404.938,64 352,64 Z" id="Path" fill="#000000" opacity="0.1"></path>
                <path d="M102.738,256.302 C102.535,254.687 102.01,253.187 101.246,251.885 C100.527,250.666 99.587,249.604 98.445,248.791 C97.975,248.458 97.478,248.166 96.962,247.926 C66,232.615 46,198.135 46,160 C46,109.921 80.202,69.15 123.52,64.844 C123.598,64.707 123.652,64.556 123.73,64.42 C121.586,64.25 119.402,64 117.333,64 C64.395,64 21.333,107.063 21.333,160 C21.333,198.135 43.948,232.615 78.958,247.927 C79.541,248.167 80.104,248.458 80.635,248.792 C81.927,249.605 82.989,250.667 83.802,251.886 C84.667,253.188 85.26,254.688 85.49,256.303 C85.573,256.876 85.605,257.47 85.594,258.053 L85.457,362.668 L102.71,362.668 L102.831,258.053 C102.84,257.469 102.813,256.875 102.738,256.302 Z" id="Path" fill="#FFFFFF" opacity="0.2"></path>
                <g id="Group" transform="translate(106.000000, 213.000000)" fill="#303C42">
                    <path d="M22,11 C22,5.104 17.229,0.333 11.333,0.333 C5.437,0.333 0.666,5.104 0.666,11 C0.666,39.01 31.562,77.469 35.083,81.771 C37.198,84.334 40.26,85.667 43.343,85.667 C45.718,85.667 48.114,84.875 50.103,83.25 C54.655,79.51 55.311,72.792 51.582,68.229 C40.146,54.292 22,26.438 22,11 Z" id="Path"></path>
                    <path d="M246,0.333 C240.104,0.333 235.333,5.104 235.333,11 C235.333,26.385 217.187,54.271 205.75,68.24 C202.021,72.792 202.687,79.511 207.24,83.25 C209.219,84.875 211.615,85.667 214,85.667 C217.083,85.667 220.135,84.334 222.25,81.771 C225.771,77.469 256.667,39.011 256.667,11 C256.667,5.104 251.896,0.333 246,0.333 Z" id="Path"></path>
                    <path d="M128.667,0.333 C122.771,0.333 118,5.104 118,11 L118,75 C118,80.896 122.771,85.667 128.667,85.667 C134.563,85.667 139.334,80.896 139.334,75 L139.334,11 C139.333,5.104 134.563,0.333 128.667,0.333 Z" id="Path"></path>
                </g>
                <path d="M352,42.667 C345.536,42.667 338.781,43.522 331.766,44.825 C308.273,17.439 273.496,0 234.667,0 C195.838,0 161.06,17.439 137.568,44.824 C130.552,43.522 123.797,42.666 117.334,42.666 C52.635,42.667 0,95.302 0,160 C0,204.333 25,244.635 64.25,264.563 L64.042,425.76 C64.032,437.395 68.552,448.333 76.771,456.562 C85,464.802 95.927,469.333 107.563,469.333 L361.813,469.333 C385.813,469.333 405.334,449.812 405.334,425.812 L405.334,264.406 C444.438,244.427 469.334,204.187 469.334,160 C469.334,95.302 416.698,42.667 352,42.667 Z" id="Path" fill="url(#linearGradient-1)"></path>
            </g>
        </g>
    </g>
</svg>